Coordinates
version=1
nRows=14
nColumns=40
inDegrees=yes

Units are S.I. units (second, meters, Newtons, ...)
If the header above contains a line with 'inDegrees', this indicates whether rotational values are in degrees (yes) or radians (no).

endheader
time	pelvis_tilt	pelvis_list	pelvis_rotation	pelvis_tx	pelvis_ty	pelvis_tz	hip_flexion_r	hip_adduction_r	hip_rotation_r	knee_angle_r	knee_angle_r_beta	ankle_angle_r	subtalar_angle_r	mtp_angle_r	hip_flexion_l	hip_adduction_l	hip_rotation_l	knee_angle_l	knee_angle_l_beta	ankle_angle_l	subtalar_angle_l	mtp_angle_l	lumbar_extension	lumbar_bending	lumbar_rotation	arm_flex_r	arm_add_r	arm_rot_r	elbow_flex_r	pro_sup_r	wrist_flex_r	wrist_dev_r	arm_flex_l	arm_add_l	arm_rot_l	elbow_flex_l	pro_sup_l	wrist_flex_l	wrist_dev_l
      0.32000000	      1.08989472	      7.81555424	    -85.30003574	      0.23504439	      0.91136932	     -1.27034072	     32.36922513	     -0.99017186	     -7.78669163	      1.00633586	      0.01756387	      0.75176808	      0.00000000	      0.00000000	     -4.58706408	      5.51111907	      2.46508277	      5.02002640	      0.08761599	      9.33704257	      0.00000000	      0.00000000	      0.50292433	     -3.15361397	     -7.66003063	      0.00000000	      0.00000000	      0.00000000	      0.00000000	      0.00000000	      0.00000000	      0.00000000	      0.00000000	      0.00000000	      0.00000000	      0.00000000	      0.00000000	      0.00000000	      0.00000000
      0.33000000	      0.97142022	      7.84110529	    -85.17515536	      0.23484478	      0.91036301	     -1.26128058	     32.29895993	     -0.84139124	     -7.82656629	      0.92864431	      0.01620790	      0.46984050	      0.00000000	     -0.00000000	     -5.24319182	      5.28828279	      2.60056230	      4.88308941	      0.08522599	      9.69887421	     -0.00000000	     -0.00000000	      0.62124677	     -2.97824571	     -7.66729661	     -0.00000000	     -0.00000000	     -0.00000000	      0.00000000	      0.00000000	      0.00000000	     -0.00000000	     -0.00000000	     -0.00000000	      0.00000000	      0.00000000	      0.00000000	      0.00000000	      0.00000000
      0.34000000	      0.94051468	      7.99963936	    -85.01183004	      0.23478732	      0.90921166	     -1.25242138	     32.49707131	     -0.85808287	     -7.82322689	      1.24248471	      0.02168545	      0.37712619	      0.00000000	     -0.00000000	     -5.47422769	      5.17036048	      2.61170058	      5.28241382	      0.09219551	      9.56805249	      0.00000000	      0.00000000	      0.85348056	     -2.88655386	     -7.76822717	      0.00000000	     -0.00000000	     -0.00000000	      0.00000000	      0.00000000	      0.00000000	     -0.00000000	      0.00000000	      0.00000000	     -0.00000000	      0.00000000	      0.00000000	     -0.00000000	     -0.00000000
      0.35000000	      0.61656904	      8.09177247	    -84.90295307	      0.23438628	      0.90820779	     -1.24317638	     32.67215263	     -0.54490429	     -8.04671262	      1.76776964	      0.03085340	     -0.17632780	      0.00000000	      0.00000000	     -5.97092390	      4.71531701	      2.68060415	      5.29492237	      0.09241383	     10.04658702	      0.00000000	      0.00000000	      1.06665127	     -2.45948547	     -7.88164550	      0.00000000	      0.00000000	      0.00000000	      0.00000000	      0.00000000	      0.00000000	      0.00000000	      0.00000000	      0.00000000	      0.00000000	      0.00000000	      0.00000000	      0.00000000	      0.00000000
      0.36000000	      0.38123137	      8.06963174	    -84.75499209	      0.23410232	      0.90744787	     -1.23385963	     32.67809087	     -0.35446185	     -8.39527749	      2.34112801	      0.04086039	     -0.69855797	     -0.00000000	      0.00000000	     -6.47658571	      4.34559642	      2.80852839	      5.53884575	      0.09667110	     10.16619785	     -0.00000000	     -0.00000000	      1.13676430	     -2.12215883	     -7.93803899	     -0.00000000	     -0.00000000	      0.00000000	      0.00000000	      0.00000000	     -0.00000000	      0.00000000	      0.00000000	     -0.00000000	      0.00000000	      0.00000000	      0.00000000	      0.00000000	      0.00000000
      0.37000000	      0.12332716	      7.98897943	    -84.57903067	      0.23380728	      0.90687199	     -1.22438617	     32.59742100	     -0.15853241	     -8.80654072	      2.98756281	      0.05214281	     -1.24975609	      0.00000000	      0.00000000	     -7.01709312	      3.92694693	      2.87776825	      5.82414256	      0.10165046	     10.16613398	      0.00000000	      0.00000000	      1.15909885	     -1.76088592	     -8.05446721	      0.00000000	      0.00000000	      0.00000000	      0.00000000	      0.00000000	      0.00000000	      0.00000000	      0.00000000	      0.00000000	      0.00000000	      0.00000000	      0.00000000	      0.00000000	      0.00000000
      0.38000000	     -0.09769864	      8.05041346	    -84.46283213	      0.23343021	      0.90615995	     -1.21489614	     32.67406244	      0.02176447	     -8.87074770	      3.73563719	      0.06519917	     -1.78783015	     -0.00000000	      0.00000000	     -7.31483744	      3.56699630	      2.90847344	      6.27971289	      0.10960167	     10.04069548	     -0.00000000	      0.00000000	      1.34380459	     -1.44153665	     -8.15959186	      0.00000000	     -0.00000000	     -0.00000000	      0.00000000	      0.00000000	      0.00000000	     -0.00000000	      0.00000000	     -0.00000000	     -0.00000000	      0.00000000	      0.00000000	      0.00000000	      0.00000000
      0.39000000	     -0.35891337	      8.04486309	    -84.34379420	      0.23299566	      0.90565123	     -1.20526147	     32.71048690	      0.22822917	     -9.14956597	      4.63313874	      0.08086353	     -2.45606249	      0.00000000	     -0.00000000	     -7.63129933	      3.14058309	      2.85781238	      6.81462870	      0.11893771	      9.87826068	      0.00000000	     -0.00000000	      1.47378905	     -1.09039969	     -8.22001342	     -0.00000000	      0.00000000	      0.00000000	      0.00000000	      0.00000000	     -0.00000000	     -0.00000000	     -0.00000000	     -0.00000000	      0.00000000	      0.00000000	      0.00000000	     -0.00000000	      0.00000000
      0.40000000	     -0.61247305	      7.98944431	    -84.22361330	      0.23255357	      0.90530252	     -1.19546949	     32.68973968	      0.41163516	     -9.63981453	      5.59672137	      0.09768122	     -3.13208371	     -0.00000000	      0.00000000	     -7.94043947	      2.70060680	      2.68043059	      7.45826019	      0.13017120	      9.63942588	     -0.00000000	      0.00000000	      1.56035739	     -0.73445917	     -8.27183686	     -0.00000000	      0.00000000	      0.00000000	      0.00000000	      0.00000000	      0.00000000	     -0.00000000	     -0.00000000	     -0.00000000	     -0.00000000	      0.00000000	      0.00000000	     -0.00000000	      0.00000000
      0.41000000	     -0.83120497	      7.97937629	    -84.12557092	      0.23202684	      0.90502649	     -1.18567419	     32.66491124	      0.60242900	     -9.69566144	      6.52345234	      0.11385572	     -3.69721927	      0.00000000	      0.00000000	     -8.13264827	      2.31163897	      2.70775816	      8.21540485	      0.14338586	      9.19519285	      0.00000000	      0.00000000	      1.68798926	     -0.43764413	     -8.37514036	      0.00000000	      0.00000000	      0.00000000	      0.00000000	      0.00000000	      0.00000000	      0.00000000	      0.00000000	      0.00000000	      0.00000000	      0.00000000	      0.00000000	      0.00000000	      0.00000000
      0.42000000	     -1.04693078	      7.89757612	    -84.03615622	      0.23156401	      0.90493539	     -1.17571690	     32.60438986	      0.75487950	    -10.09999187	      7.58999424	      0.13247039	     -4.34554680	      0.00000000	      0.00000000	     -8.30990614	      1.89279193	      2.44227949	      9.13179274	      0.15937985	      8.65900232	     -0.00000000	      0.00000000	      1.75915840	     -0.09743695	     -8.40988731	     -0.00000000	     -0.00000000	     -0.00000000	      0.00000000	      0.00000000	     -0.00000000	     -0.00000000	      0.00000000	      0.00000000	     -0.00000000	      0.00000000	      0.00000000	     -0.00000000	     -0.00000000
      0.43000000	     -1.27426682	      7.80504154	    -83.93707073	      0.23099876	      0.90499028	     -1.16570364	     32.52010669	      0.92266614	    -10.50457412	      8.68232428	      0.15153515	     -4.88712473	      0.00000000	      0.00000000	     -8.36483295	      1.43145577	      2.09259265	     10.26910279	      0.17922965	      8.00571676	      0.00000000	      0.00000000	      1.83129071	      0.21736933	     -8.46756986	      0.00000000	      0.00000000	      0.00000000	      0.00000000	      0.00000000	      0.00000000	      0.00000000	      0.00000000	      0.00000000	      0.00000000	      0.00000000	      0.00000000	      0.00000000	      0.00000000
      0.44000000	     -1.47287035	      7.73099409	    -83.86832954	      0.23039799	      0.90514272	     -1.15564928	     32.42231704	      1.09008853	    -10.73140200	      9.74961168	      0.17016282	     -5.34647498	      0.00000000	      0.00000000	     -8.30642014	      1.00080437	      1.79390835	     11.55973910	      0.20175551	      7.19982471	      0.00000000	      0.00000000	      1.91869844	      0.50920294	     -8.51393196	      0.00000000	      0.00000000	      0.00000000	      0.00000000	      0.00000000	      0.00000000	      0.00000000	      0.00000000	      0.00000000	      0.00000000	      0.00000000	      0.00000000	      0.00000000	      0.00000000
      0.45000000	     -1.60472826	      7.61617194	    -83.82179497	      0.22982032	      0.90549212	     -1.14557395	     32.24913935	      1.21219529	    -10.88645370	     10.78988509	      0.18831902	     -5.74855774	      0.00000000	      0.00000000	     -8.22033723	      0.62764957	      1.51565897	     12.96321498	      0.22625078	      6.17967365	      0.00000000	      0.00000000	      1.95774307	      0.73557324	     -8.54218595	      0.00000000	      0.00000000	      0.00000000	      0.00000000	      0.00000000	      0.00000000	      0.00000000	      0.00000000	      0.00000000	      0.00000000	      0.00000000	      0.00000000	      0.00000000	      0.00000000
